After a sudden underwater tremor sets free scores of the prehistoric man-eating fish, an unlikely group of strangers must band together to stop themselves from becoming fish food for the area's new razor-toothed residents.
 
http://www.imdb.com/title/tt0464154/

Subs: Dutch, English (srt).


Elk jaar stijgt de populatie van het slaperige dorpje rondom Lake Victoria explosief van 5.000 naar 50.000 mensen, allemaal gekomen om een wild weekend te beleven. Het '4th of July' feest staat garant voor zuipend sextoerisme. Dit jaar echter, zijn katers en geklaag van de lokale bevolking niet de enige zorgen van de tijdelijke bewoners; een aardschok in Lake Victoria heeft een scheur in de bodem gemaakt waardoor een kolonie van prehistorische piranha’s zich in het meer heeft genesteld. Ongekende moordmachines die door hun primitieve instinct maar één doel voor ogen hebben: jagen op alles wat beweegt en schoonstrippen tot het bot. In luttele seconden..
 
http://www.moviemeter.nl/film/61387

Ondertitels: Engels, Nederlands (srt).

General
Complete name                    : Piranha-AC3-DVDRip 2010 TBS\Piranha-AC3-DVDRip 2010.avi
Format                           : AVI
Format/Info                      : Audio Video Interleave
File size                        : 1.36 GiB
Duration                         : 1h 24mn
Overall bit rate                 : 2 300 Kbps
Writing application              : VirtualDubMod 1.5.4.1 (build 2178/release)
Writing library                  : VirtualDubMod build 2178/release
Source                           : Pal Retail

Video
ID                               : 0
Format                           : MPEG-4 Visual
Format profile                   : Simple@L3
Format settings, BVOP            : No
Format settings, QPel            : No
Format settings, GMC             : No warppoints
Format settings, Matrix          : Default (H.263)
Codec ID                         : XVID
Codec ID/Hint                    : XviD
Duration                         : 1h 24mn
Bit rate                         : 1 842 Kbps
Width                            : 720 pixels
Height                           : 304 pixels
Display aspect ratio             : 2.35:1
Frame rate                       : 25.000 fps
Resolution                       : 8 bits
Colorimetry                      : 4:2:0
Scan type                        : Progressive
Bits/(Pixel*Frame)               : 0.337
Stream size                      : 1.09 GiB (80%)
Writing library                  : XviD 1.1.2 (UTC 2006-11-01)

Audio
ID                               : 1
Format                           : AC-3
Format/Info                      : Audio Coding 3
Codec ID                         : 2000
Duration                         : 1h 24mn
Bit rate mode                    : Constant
Bit rate                         : 448 Kbps
Channel(s)                       : 6 channels
Channel positions                : Front: L C R, Surround: L R, LFE
Sampling rate                    : 48.0 KHz
Stream size                      : 272 MiB (19%)
Alignment                        : Split accross interleaves
Interleave, duration             : 40 ms (1.00 video frame)
Interleave, preload duration     : 500 ms

Thanks to RETAiL_RELEASES for the source. 

Blackbeard  TBS.

Enjoy...